# xmcd
#
# Track frame offsets: 
#        150
#        13302
#        29015
#        42102
#        57782
#        78227
#        90625
#        104622
#        124839
#        140177
#        157229
#        169107
#        185670
#        196567
#        220712
#        232277
#        243412
#        255522
#        270112
#        282227
#
# Disc length: 4199 seconds
#
# Revision: 3
# Processed by: cddbd v1.5.2PL0 Copyright (c) Steve Scherf et al.
# Submitted via: ExactAudioCopy v1.3
#
DISCID=20106514
DTITLE=Various Artist - Soul and Blues Vol. 1
DYEAR=1995
DGENRE=Soul
TTITLE0=Ike and Tina Turner - Nutbush city limits
TTITLE1=Jimmy Castor Bunsch - Troglodyte
TTITLE2=James Brown - Get on the good foot
TTITLE3=Ben E. King - Supernatural thing
TTITLE4=Rare Earth - Hy big brother
TTITLE5=R.B. Greaves - Take a letter Maria
TTITLE6=George Mc Crar - I can't leave you alone
TTITLE7=Carol Douglas - Doctor's orders
TTITLE8=Chi-Lites - I found sunshine
TTITLE9=Mud - Under the boardwalk
TTITLE10=Drifters - Up on the roof
TTITLE11=Jimmy Cliff - Sitting in Limbo
TTITLE12=Sam and Dave - Hold on I'm coming
TTITLE13=La Toya Jackson - Sexual feeling
TTITLE14=George Mc Crae - Been so long
TTITLE15=John Lee Hooker - Boom boom
TTITLE16=B.B. King - Please love
TTITLE17=Muddy Waters - Baby please don't go
TTITLE18=Canned Heat - Got my mojo working
TTITLE19=Carol Douglas - Midnight love affair
EXTD=
EXTT0=
EXTT1=
EXTT2=
EXTT3=
EXTT4=
EXTT5=
EXTT6=
EXTT7=
EXTT8=
EXTT9=
EXTT10=
EXTT11=
EXTT12=
EXTT13=
EXTT14=
EXTT15=
EXTT16=
EXTT17=
EXTT18=
EXTT19=
PLAYORDER=
